<svg width="74" height="49" viewBox="0 0 74 49" fill="none" xmlns="http://www.w3.org/2000/svg">
<path fill-rule="evenodd" clip-rule="evenodd" d="M32.2641 42.3931C29.8849 43.4268 27.2594 44 24.5 44C13.7304 44 5 35.2696 5 24.5C5 13.7304 13.7304 5 24.5 5C27.2594 5 29.8849 5.57316 32.2641 6.60691C27.4861 11.0778 24.5 17.4402 24.5 24.5C24.5 31.5598 27.4861 37.9222 32.2641 42.3931ZM36.75 45.7223C33.1464 47.8069 28.9625 49 24.5 49C10.969 49 0 38.031 0 24.5C0 10.969 10.969 0 24.5 0C28.9625 0 33.1464 1.19308 36.75 3.27767C40.3536 1.19308 44.5375 0 49 0C62.531 0 73.5 10.969 73.5 24.5C73.5 38.031 62.531 49 49 49C44.5375 49 40.3536 47.8069 36.75 45.7223ZM41.2359 6.60691C43.6151 5.57316 46.2406 5 49 5C59.7696 5 68.5 13.7304 68.5 24.5C68.5 35.2696 59.7696 44 49 44C46.2406 44 43.6151 43.4268 41.2359 42.3931C46.0139 37.9222 49 31.5598 49 24.5C49 17.4402 46.0139 11.0778 41.2359 6.60691ZM36.75 9.32722C41.1722 12.902 44 18.3708 44 24.5C44 30.6292 41.1722 36.098 36.75 39.6728C32.3278 36.098 29.5 30.6292 29.5 24.5C29.5 18.3708 32.3278 12.902 36.75 9.32722Z" fill="#E7E7E7"/>
</svg>
